Coordinates
version=1
nRows=16
nColumns=22
inDegrees=yes

Units are S.I. units (second, meters, Newtons, ...)
If the header above contains a line with 'inDegrees', this indicates whether rotational values are in degrees (yes) or radians (no).

endheader
time	pelvis_tilt	pelvis_list	pelvis_rotation	pelvis_tx	pelvis_ty	pelvis_tz	hip_flexion_r	hip_adduction_r	hip_rotation_r	knee_angle_r	ankle_angle_r	subtalar_angle_r	hip_flexion_l	hip_adduction_l	hip_rotation_l	knee_angle_l	ankle_angle_l	subtalar_angle_l	lumbar_extension	lumbar_bending	lumbar_rotation
      1.31000000	     -0.16728861	     -0.19316250	     -5.65980188	     -0.83350963	      0.90331869	     -0.25716318	     -6.28820822	      1.00278126	     -5.74321385	     -1.55869891	     16.15646889	     -1.70134727	      1.17431251	     -3.16561916	    -12.71625937	    -17.12538575	     17.91545734	     -1.90122534	     -4.32098185	     -2.69396383	      3.75622382
      1.32000000	     -0.18898122	     -0.15962110	     -5.63126038	     -0.83322297	      0.90324482	     -0.25733486	     -6.29575041	      0.95827822	     -5.74573833	     -1.53913783	     16.19336632	     -1.70031011	      1.20189765	     -3.12137290	    -12.68035916	    -17.15419307	     17.94243682	     -1.90175157	     -4.32867000	     -2.74760374	      3.73869599
      1.33000000	     -0.22517319	     -0.13484077	     -5.60905044	     -0.83289466	      0.90315545	     -0.25753015	     -6.28641404	      0.92124554	     -5.76483437	     -1.52540872	     16.24361813	     -1.69653893	      1.22222353	     -3.08156806	    -12.64873541	    -17.14564670	     17.96667284	     -1.90798151	     -4.31639803	     -2.78076969	      3.71389517
      1.34000000	     -0.24694283	     -0.13809661	     -5.60015099	     -0.83256774	      0.90309671	     -0.25771346	     -6.28659093	      0.91054117	     -5.76537060	     -1.52732510	     16.24798891	     -1.69554833	      1.22581408	     -3.07499458	    -12.64812692	    -17.14668330	     17.96920298	     -1.90881879	     -4.32991245	     -2.78192607	      3.71659598
      1.35000000	     -0.28305911	     -0.10237188	     -5.58533370	     -0.83223643	      0.90299510	     -0.25791355	     -6.26472725	      0.85765927	     -5.77812522	     -1.53556110	     16.31681498	     -1.67842682	      1.26817455	     -3.02686974	    -12.62240402	    -17.18473915	     18.01530232	     -1.91542200	     -4.32282868	     -2.83565690	      3.72175982
      1.36000000	     -0.36993514	     -0.08328098	     -5.57712947	     -0.83191249	      0.90282897	     -0.25813723	     -6.14439597	      0.82129191	     -5.82390779	     -1.62642300	     16.42428688	     -1.61654617	      1.35548662	     -2.99761798	    -12.59282580	    -17.20565272	     18.05198689	     -1.96217058	     -4.25920020	     -2.85674766	      3.72377289
      1.37000000	     -0.39554337	     -0.08961058	     -5.57264905	     -0.83153304	      0.90276515	     -0.25835045	     -6.14268989	      0.80923797	     -5.82365144	     -1.62898327	     16.43060018	     -1.61271301	      1.35976381	     -2.99099159	    -12.59489981	    -17.20858632	     18.05783184	     -1.96365458	     -4.27231000	     -2.85516541	      3.72454068
      1.38000000	     -0.48348781	     -0.06848795	     -5.57109024	     -0.83117597	      0.90257675	     -0.25857660	     -6.02042969	      0.76675155	     -5.85641186	     -1.72564056	     16.58268244	     -1.51645441	      1.45905160	     -2.96345821	    -12.58758156	    -17.25941597	     18.16637001	     -2.00534179	     -4.20981902	     -2.88433678	      3.72589845
      1.39000000	     -0.57426514	     -0.07007681	     -5.55237116	     -0.83084045	      0.90240139	     -0.25882720	     -5.89420801	      0.75071875	     -5.90883249	     -1.82665172	     16.66940810	     -1.39087052	      1.57715565	     -2.96215498	    -12.55338745	    -17.33622596	     18.21630232	     -2.07028536	     -4.15869856	     -2.88935326	      3.72438922
      1.40000000	     -0.64675429	     -0.06795908	     -5.52954413	     -0.83044360	      0.90224876	     -0.25910295	     -5.81228963	      0.72793110	     -5.95608822	     -1.88969124	     16.75537097	     -1.27072815	      1.66161992	     -2.94959011	    -12.51508391	    -17.39183410	     18.28919970	     -2.12663661	     -4.12572879	     -2.90056799	      3.71503550
      1.41000000	     -0.72361088	     -0.06860494	     -5.49982242	     -0.83004132	      0.90209125	     -0.25940041	     -5.71966465	      0.70765181	     -6.02776138	     -1.96533914	     16.85512143	     -1.12828627	      1.75662404	     -2.93904522	    -12.46697183	    -17.45753019	     18.35207481	     -2.20025372	     -4.09515291	     -2.91059094	      3.70123128
      1.42000000	     -0.80456361	     -0.06206547	     -5.46319054	     -0.82957601	      0.90192623	     -0.25974257	     -5.64003825	      0.67710368	     -6.09674474	     -2.01784460	     16.94427280	     -0.96686658	      1.84985242	     -2.91556428	    -12.40886555	    -17.51681383	     18.42755147	     -2.28888223	     -4.05297581	     -2.92667943	      3.68534791
      1.43000000	     -0.90147829	     -0.06350681	     -5.42067466	     -0.82910765	      0.90175200	     -0.26011410	     -5.53244618	      0.65498389	     -6.19788229	     -2.09312643	     17.00527460	     -0.70238328	      1.96418329	     -2.89849262	    -12.33787872	    -17.58197015	     18.47890455	     -2.45925901	     -4.00048028	     -2.93533729	      3.68538458
      1.44000000	     -0.94412513	     -0.05374554	     -5.39729843	     -0.82853617	      0.90164795	     -0.26047911	     -5.54599184	      0.61487210	     -6.22370811	     -2.05847274	     17.07524744	     -0.65577185	      1.99896809	     -2.86268171	    -12.31816011	    -17.62747626	     18.52864499	     -2.48302896	     -4.00239870	     -2.96584506	      3.72025156
      1.45000000	     -1.06925349	     -0.02613573	     -5.33897814	     -0.82797853	      0.90142573	     -0.26097432	     -5.39969251	      0.55494366	     -6.37442828	     -2.16071995	     17.21844956	     -0.26534454	      2.13597290	     -2.79841803	    -12.21148482	    -17.67632047	     18.63883363	     -2.78047318	     -3.91135798	     -2.99864693	      3.70156982
      1.46000000	     -1.15042366	      0.00521421	     -5.30032294	     -0.82732416	      0.90126801	     -0.26147870	     -5.36642532	      0.48507375	     -6.44592640	     -2.14746303	     17.30906183	      0.04809561	      2.21079000	     -2.72540016	    -12.16261157	    -17.71748955	     18.73925958	     -3.02196382	     -3.86395451	     -3.04084819	      3.72235470
